<?xml version="1.0" encoding="UTF-8" standalone="no"?>
        <svg 
    viewBox="16.8 -79.42500000000001 417.88269195556643 47.025000000000006"
    width="401.0826919555664"
    height="126.45"
   xmlns="http://www.w3.org/2000/svg"
   xmlns:svg="http://www.w3.org/2000/svg">
   <path d="M65.10-107.55L65.85-108.45Q66.45-109.20 66.83-109.13Q67.20-109.05 68.55-107.85L68.55-107.85Q69-107.55 69.15-107.02Q69.30-106.50 69.30-105.60Q69.30-104.70 69.30-102L69.30-102Q69.30-98.40 69.22-97.42Q69.15-96.45 68.40-95.25Q67.65-94.05 67.35-93.83Q67.05-93.60 66.45-93.90L66.45-93.90Q65.70-94.20 65.70-94.58Q65.70-94.95 66.30-96.30L66.30-96.30Q67.20-97.80 67.20-101.85L67.20-101.85Q67.20-104.85 67.05-105.52Q66.90-106.20 66.15-106.80L66.15-106.80L65.10-107.55ZM72-90L72-90Q80.85-90.60 90-90.75L90-90.75L99-90.75L99-89.70L99-88.50L92.70-88.50Q80.55-88.50 59.25-86.25L59.25-86.25Q51.45-85.35 47.10-85.20L47.10-85.20Q36.30-84.30 34.95-83.10L34.95-83.10Q34.35-82.65 33.75-83.55L33.75-83.55Q33-84.45 33-84.75L33-84.75Q33-86.70 47.85-87.75L47.85-87.75Q52.80-88.05 58.35-88.80L58.35-88.80Q63.75-89.25 72-90ZM30.90-84L30.90-84Q31.80-84.45 32.10-84.30Q32.40-84.15 32.85-83.40L32.85-83.40Q34.20-81.45 34.95-57.60L34.95-57.60Q35.40-43.05 34.80-36L34.80-36Q33.30-20.40 31.35-15.60L31.35-15.60L30.60-14.10L31.80-15.15Q32.85-16.20 33.45-16.20L33.45-16.20Q33.90-16.20 36.90-17.55L36.90-17.55Q39.15-18.90 42.75-20.40L42.75-20.40Q46.20-22.05 51-24.90L51-24.90Q56.25-28.05 62.40-33.45L62.40-33.45Q68.40-39 72.30-43.05L72.30-43.05L76.05-47.10L73.50-46.35Q71.10-45.45 69.60-45.30L69.60-45.30L68.25-45L68.25-46.35Q68.25-47.85 69-48.82Q69.75-49.80 72.30-51.45L72.30-51.45Q74.10-52.65 76.65-54.60Q79.20-56.55 81.22-58.20Q83.25-59.85 83.55-60.30Q83.85-60.75 83.70-60.97Q83.55-61.20 82.65-61.20L82.65-61.20Q81.60-61.50 79.80-61.20L79.80-61.20Q78.15-60.75 75.60-60.75L75.60-60.75L73.20-60.75L73.20-61.80Q73.20-62.25 73.20-62.40Q73.20-62.55 73.27-62.70Q73.35-62.85 73.65-62.92Q73.95-63 74.33-63Q74.70-63 75.45-63.15L75.45-63.15Q82.20-63.75 84.08-63.60Q85.95-63.45 86.70-62.25L86.70-62.25Q87.45-61.20 87.15-60.60L87.15-60.60Q85.80-58.20 78-52.20L78-52.20L75-49.80Q75.30-49.80 76.20-50.25L76.20-50.25Q79.05-51.75 81.90-51.45L81.90-51.45Q82.35-51.45 82.20-51.15L82.20-51.15Q79.95-47.25 73.65-40.80L73.65-40.80L69.75-36.90L75.90-35.25Q85.50-32.85 89.47-31.72Q93.45-30.60 95.33-29.77Q97.20-28.95 98.55-27.75L98.55-27.75Q99.45-27 99-26.25L99-26.25Q98.40-25.50 98.17-25.50Q97.95-25.50 95.55-26.85L95.55-26.85Q93.30-28.20 81.30-31.35L81.30-31.35Q81.15-31.35 80.85-31.35L80.85-31.35Q72.15-33.60 70.65-34.13Q69.15-34.65 69.15-35.40L69.15-35.40L69.30-36.30L67.65-34.95Q63.90-31.50 61.65-29.47Q59.40-27.45 57.45-26.02Q55.50-24.60 52.95-23.10L52.95-23.10Q47.55-19.80 47.40-19.80Q47.25-19.80 41.10-16.80L41.10-16.80Q34.65-13.80 32.85-13.35L32.85-13.35Q30.75-12.90 30.45-12.60L30.45-12.60Q30.30-12.45 28.50-7.95L28.50-7.95Q24.30 2.25 19.65 5.85L19.65 5.85L18.30 6.90L17.55 6L16.80 5.40L18.15 4.20Q19.65 2.85 22.05-0.97Q24.45-4.80 25.65-7.65L25.65-7.65Q28.50-14.55 29.85-20.47Q31.20-26.40 32.10-35.70L32.10-35.70Q32.70-42.75 32.40-57.30L32.40-57.30Q31.65-80.10 30.45-82.20L30.45-82.20Q30-83.40 30-83.40L30-83.40Q30.15-83.55 30.90-84ZM86.25-74.70L86.25-74.70Q93.15-75.60 95.25-73.05L95.25-73.05Q96.75-71.10 96.30-64.35L96.30-64.35Q95.70-53.25 95.70-52.50L95.70-52.50Q94.65-35.55 94.35-34.05L94.35-34.05Q94.20-33.60 94.05-33.38Q93.90-33.15 93.52-33.07Q93.15-33 92.40-33L92.40-33Q91.35-33 90.90-33.30Q90.45-33.60 89.40-35.10L89.40-35.10Q86.70-39.15 86.70-40.05L86.70-40.05Q86.70-40.35 87.45-40.80L87.45-40.80Q88.05-40.95 88.42-40.65Q88.80-40.35 90-38.55L90-38.55Q90.75-37.50 91.27-36.82Q91.80-36.15 91.95-36.30L91.95-36.30Q92.25-36.60 93.75-63.45L93.75-63.45Q94.05-69.45 93.52-70.80Q93-72.15 90.30-72.15L90.30-72.15Q88.20-72.15 85.13-71.92Q82.05-71.70 79.58-71.25Q77.10-70.80 76.50-70.50L76.50-70.50Q75.15-69.75 74.17-69.90Q73.20-70.05 73.20-71.10L73.20-71.10Q73.20-73.05 80.40-73.80L80.40-73.80Q84.60-74.40 86.25-74.70ZM53.70-69.90L53.70-69.90Q55.80-70.35 57.90-70.50L57.90-70.50Q61.35-70.50 61.88-69Q62.40-67.50 61.50-60.15L61.50-60.15Q60.75-53.55 60.45-47.10L60.45-47.10Q60.30-41.10 60-39.90L60-39.90Q59.85-39.45 59.70-39.23Q59.55-39 59.40-38.85Q59.25-38.70 58.95-38.70Q58.65-38.70 58.20-38.70L58.20-38.70Q56.85-38.70 55.35-40.20L55.35-40.20L53.85-41.70L54.60-42.45L55.50-43.20L56.55-42.30L57.60-41.25L57.90-46.95Q58.20-52.95 58.80-59.25L58.80-59.25Q59.70-65.85 59.70-66.90L59.70-66.90L59.70-67.95L57.15-67.80Q55.20-67.50 51.15-66.90L51.15-66.90Q48.15-66.45 43.05-66.30L43.05-66.30L38.25-66.30L38.25-67.50L38.25-68.40L44.70-69Q51-69.45 53.70-69.90ZM45.75-60.30L45.75-60.30Q47.10-60.45 48.90-60.15Q50.70-59.85 51.30-59.40L51.30-59.40Q51.45-59.25 51.75-57.60L51.75-57.60Q52.05-56.10 51.60-55.05L51.60-55.05Q50.85-53.55 51.30-53.63Q51.75-53.70 54.15-55.35L54.15-55.35Q56.70-57 57-57L57-57Q57.15-57 57.45-56.55Q57.75-56.10 57.90-55.73Q58.05-55.35 57.90-55.20L57.90-55.20Q57.30-54.90 55.05-53.10L55.05-53.10Q51.90-50.85 47.55-49.05Q43.20-47.25 40.80-47.25L40.80-47.25Q40.05-47.25 39.90-47.48Q39.75-47.70 39.75-48.38Q39.75-49.05 40.13-49.35Q40.50-49.65 42-50.25L42-50.25Q47.55-52.20 48.75-55.05L48.75-55.05Q49.50-56.70 49.05-57.23Q48.60-57.75 46.80-57.75L46.80-57.75Q45.15-57.75 43.65-57.23Q42.15-56.70 42.30-56.40L42.30-56.40Q42.30-56.10 41.32-55.65Q40.35-55.20 39.90-55.20L39.90-55.20Q39.75-55.20 39.45-56.25L39.45-56.25Q39-57.30 39.90-58.05L39.90-58.05Q41.85-59.85 45.75-60.30ZM70.20-29.55L73.20-29.70Q75.75-29.85 76.05-30L76.05-30L76.20-29.85Q76.20-29.70 73.95-28.20Q71.70-26.70 71.40-26.70L71.40-26.70Q70.95-26.70 68.70-24.30L68.70-24.30Q66.30-22.20 66.75-22.20L66.75-22.20Q66.90-22.20 67.35-22.20L67.35-22.20Q68.85-22.50 72.30-22.80L72.30-22.80L76.35-22.95L76.95-21.60Q77.55-20.25 77.17-19.57Q76.80-18.90 74.25-16.35L74.25-16.35Q71.70-13.65 72.15-13.50L72.15-13.50Q72.60-13.20 77.85-13.20L77.85-13.20L83.10-13.20L84-11.55L85.20-9.90L84-6.90Q81.90-1.80 76.95 3.07Q72 7.95 66.30 10.20L66.30 10.20Q62.85 11.70 58.50 11.85L58.50 11.85L54 12.15L54 10.95L54 9.90L57.90 9.60Q65.40 9.15 72.30 3.90L72.30 3.90Q76.05 0.90 78.45-2.40L78.45-2.40Q81-6 81.60-7.80L81.60-7.80Q82.35-10.05 81.60-10.42Q80.85-10.80 76.20-10.80L76.20-10.80Q71.25-10.80 68.10-11.10L68.10-11.10L65.25-11.40L65.25-12.60Q65.25-13.35 65.63-13.72Q66-14.10 67.65-14.70L67.65-14.70Q70.05-15.75 72.30-18L72.30-18Q74.70-20.25 74.55-20.55L74.55-20.55Q74.25-20.70 69.30-19.80L69.30-19.80Q64.20-19.05 61.20-19.20L61.20-19.20L58.20-19.35L61.35-21.90Q64.50-24.15 67.50-27L67.50-27L70.20-29.55ZM229.35-99.90L229.35-99.90Q229.80-100.20 233.18-100.13Q236.55-100.05 236.85-99.90L236.85-99.90Q237.30-99.60 236.85-98.63Q236.40-97.65 234.60-97.80L234.60-97.80Q232.80-97.95 228.75-97.35L228.75-97.35Q224.55-96.75 221.70-96.60L221.70-96.60Q220.65-96.45 220.13-96.38Q219.60-96.30 219.22-96.22Q218.85-96.15 218.85-96Q218.85-95.85 218.85-95.70L218.85-95.70Q219.15-94.95 219.45-90L219.45-90L219.90-84.90L227.10-84.90Q233.70-84.90 244.35-84.30L244.35-84.30Q253.05-83.55 254.40-83.55Q255.75-83.55 259.65-83.85L259.65-83.85L263.85-84.15L264.30-83.10Q264.75-82.05 263.25-79.35L263.25-79.35Q262.20-77.40 259.35-70.27Q256.50-63.15 255.90-60.90L255.90-60.90Q255.45-59.40 254.40-58.50L254.40-58.50L253.50-57.60L252.60-58.50L251.85-59.25L252.60-60.15Q253.50-61.05 253.50-61.50L253.50-61.50Q253.50-62.10 254.93-66Q256.35-69.90 258.30-74.40Q260.25-78.90 261.30-81.15L261.30-81.15Q261.30-81.15 260.93-81.22Q260.55-81.30 259.80-81.22Q259.05-81.15 258.15-81.15L258.15-81.15Q255.90-81 246.82-81.45Q237.75-81.90 232.80-82.50L232.80-82.50Q231-82.65 225.82-82.50Q220.65-82.35 220.35-82.20L220.35-82.20Q220.20-81.90 219.90-76.50L219.90-76.50L219.75-70.95L221.55-71.40Q223.80-72 225.15-72.30L225.15-72.30Q227.70-72.60 231.90-74.25Q236.10-75.90 237.75-77.25L237.75-77.25L239.10-78.30L240-77.40L240.90-76.50L239.70-75.30Q237.60-73.65 231-71.25L231-71.25Q227.85-70.05 227.85-69.83Q227.85-69.60 231.30-69.15L231.30-69.15Q234.45-68.85 240-67.05L240-67.05L243.75-66L243.15-64.80L242.70-63.90L239.55-64.80Q233.40-66.60 226.35-67.20L226.35-67.20Q221.25-67.80 220.50-68.10L220.50-68.10Q220.05-68.25 219.90-67.50L219.90-67.50L219.75-64.95Q219.60-63.60 219.52-62.77Q219.45-61.95 219.22-61.42Q219-60.90 218.70-60.82Q218.40-60.75 217.95-60.90L217.95-60.90Q217.50-61.05 217.43-61.72Q217.35-62.40 217.50-65.40L217.50-65.40L217.50-69.60L216.15-70.20L214.65-70.80L216.15-70.80L217.50-70.80L217.50-76.35L217.50-81.75L215.70-81.75Q214.20-81.75 208.80-80.85L208.80-80.85Q195.75-78.60 182.40-78L182.40-78L176.70-77.85L176.70-79.05Q176.70-79.95 176.93-80.10Q177.15-80.25 178.50-80.25L178.50-80.25Q181.20-80.25 193.72-81.60Q206.25-82.95 210.15-83.70L210.15-83.70Q214.20-84.30 215.85-84.30L215.85-84.30Q217.05-84.30 217.27-84.45Q217.50-84.60 217.35-85.50L217.35-85.50Q217.20-86.25 216.90-90.30L216.90-90.30Q216.75-94.20 216.38-94.35Q216-94.50 216-95.40L216-95.40L216-96.45L208.20-96.30Q200.55-96.30 199.88-96.97Q199.20-97.65 199.50-98.10L199.50-98.10Q199.95-98.70 209.10-98.70L209.10-98.70Q214.80-98.70 221.47-99.08Q228.15-99.45 229.35-99.90ZM172.80-80.40L172.80-80.40Q172.80-80.55 173.40-80.63Q174-80.70 174.60-80.55Q175.20-80.40 175.50-80.10L175.50-80.10Q175.95-79.50 177.82-73.05Q179.70-66.60 180.30-63.60L180.30-63.60Q181.05-59.70 181.65-58.50L181.65-58.50Q182.10-57.60 182.10-57.30Q182.10-57 181.50-56.40L181.50-56.40Q180.90-55.95 180.75-55.95Q180.60-55.95 180-56.40L180-56.40Q178.65-57.90 177.30-65.40L177.30-65.40Q177-67.65 174.90-74.10L174.90-74.10Q172.80-79.95 172.80-80.40ZM198.60-74.40L198.60-74.40Q198.75-75.30 199.35-75.30Q199.95-75.30 201.75-74.70L201.75-74.70Q207.75-72.45 207.75-67.95L207.75-67.95Q207.75-67.05 207.68-66.83Q207.60-66.60 207.38-66.45Q207.15-66.30 206.70-66.45L206.70-66.45Q205.65-66.60 205.50-67.65L205.50-67.65Q205.20-68.85 204.90-69.60L204.90-69.60Q204.45-70.35 202.88-71.33Q201.30-72.30 199.95-72.60L199.95-72.60Q198.90-72.75 198.60-73.13Q198.30-73.50 198.60-74.40ZM210.15-66.75L210.15-66.75Q212.55-67.50 212.70-67.50L212.70-67.50Q213-67.50 213.22-66.52Q213.45-65.55 213.30-65.40L213.30-65.40Q212.85-64.95 204-62.55L204-62.55Q196.35-60.60 192.75-62.40L192.75-62.40L191.10-63.30L193.05-63.90Q195-64.50 195.60-64.05L195.60-64.05Q197.40-63 210.15-66.75ZM231-50.55L231-50.55Q235.65-51.30 237.45-51.30L237.45-51.30Q238.80-51.30 239.02-51.23Q239.25-51.15 239.25-50.40L239.25-50.40L239.25-49.20L233.10-48.30Q226.80-47.40 213.90-47.40L213.90-47.40L200.70-47.40L200.70-48.45Q200.70-49.05 200.93-49.27Q201.15-49.50 202.20-49.65L202.20-49.65Q203.85-49.95 215.10-49.80L215.10-49.80Q226.35-49.80 231-50.55ZM239.85-34.80L239.85-34.80Q241.50-35.10 246.15-35.25L246.15-35.25L250.50-35.25L250.50-34.20L250.50-33L246.30-32.85Q242.25-32.70 234.30-31.50L234.30-31.50Q221.70-29.70 210.45-29.55L210.45-29.55Q202.35-29.55 197.40-29.25L197.40-29.25Q188.70-28.50 187.20-28.50Q185.70-28.50 184.95-29.40L184.95-29.40Q184.20-30.45 184.20-31.35L184.20-31.35Q184.20-31.95 184.43-32.10Q184.65-32.25 185.40-32.25L185.40-32.25Q186.60-32.25 186.90-31.50L186.90-31.50Q187.05-30.90 187.35-30.82Q187.65-30.75 188.85-30.90L188.85-30.90Q195.30-31.80 208.80-32.10L208.80-32.10Q221.55-32.25 229.65-33.30L229.65-33.30Q239.10-34.65 239.85-34.80ZM216.75-28.20L216.75-28.20Q216.75-28.80 217.65-28.80Q218.55-28.80 219.15-27.30L219.15-27.30L219.90-25.80L218.40-24.30Q216.90-22.80 214.20-19.05L214.20-19.05Q209.55-12.75 201.45-4.35L201.45-4.35Q194.55 2.85 193.95 4.50L193.95 4.50L193.80 4.80Q193.65 5.40 194.25 5.40L194.25 5.40Q195 5.40 198.75 4.80L198.75 4.80L198.90 4.80L199.05 4.80L199.20 4.80L199.35 4.80L199.50 4.80L199.65 4.80L199.80 4.80L199.95 4.80L200.10 4.65L200.25 4.65Q215.55 2.85 230.40 2.10L230.40 2.10Q240 1.50 242.10-0.15L242.10-0.15Q243.15-1.05 243.52-1.13Q243.90-1.20 244.50-0.75L244.50-0.75L245.40-0.15L243.90 1.35Q242.10 3.15 239.63 3.60Q237.15 4.05 226.35 4.80L226.35 4.80Q208.65 6.15 200.10 7.35L200.10 7.35Q193.80 8.25 191.70 7.65L191.70 7.65Q189.90 7.20 191.55 3.60L191.55 3.60Q193.05 0.45 200.55-7.35L200.55-7.35Q207.30-14.25 212.25-20.85L212.25-20.85Q214.50-23.85 216-25.65L216-25.65Q216.45-26.25 216.60-27L216.60-27Q216.60-27.15 216.60-27.38Q216.60-27.60 216.68-27.82Q216.75-28.05 216.75-28.20ZM242.10-16.50L242.10-16.50Q242.85-16.80 243-16.80L243-16.80Q243.45-16.80 244.13-15.22Q244.80-13.65 244.80-12.90L244.80-12.90Q244.80-12 245.40-10.95L245.40-10.95Q245.85-9.90 246.30-7.80L246.30-7.80Q246.75-6 251.47 2.77Q256.20 11.55 257.70 13.20L257.70 13.20Q259.05 14.70 258.60 15.45L258.60 15.45Q258.15 16.20 257.70 16.20L257.70 16.20Q256.05 16.20 249.45 4.35L249.45 4.35Q246-1.95 244.80-4.72Q243.60-7.50 242.40-12.30L242.40-12.30Q241.95-14.25 241.50-15L241.50-15Q241.05-15.90 241.20-15.90L241.20-15.90Q241.35-16.05 242.10-16.50ZM384-106.95L384-106.95Q387.15-110.25 387.30-110.25L387.30-110.25Q387.30-110.25 386.48-108.75Q385.65-107.25 384.15-104.70L384.15-104.70Q383.40-103.35 381.52-100.20Q379.65-97.05 379.20-96.15L379.20-96.15Q378-94.05 376.20-91.58Q374.40-89.10 373.95-88.95L373.95-88.95Q373.65-88.95 372.90-89.55L372.90-89.55Q372.45-90.15 372.52-90.45Q372.60-90.75 373.65-91.95L373.65-91.95Q374.85-93.45 377.85-98.70L377.85-98.70Q380.70-103.65 384-106.95ZM338.85-97.65L338.85-97.65Q339-98.55 339.23-98.77Q339.45-99 340.35-99L340.35-99L341.70-99L341.40-97.50Q340.95-93.90 339.60-90.60L339.60-90.60Q339.45-90.30 340.43-89.63Q341.40-88.95 344.85-87.30L344.85-87.30Q353.55-82.95 360-80.40L360-80.40L363.75-79.05L363.15-78L362.70-76.95L358.05-78.60Q353.40-80.25 345.90-84L345.90-84L338.40-87.60L336.60-84.30Q333.90-79.05 329.70-73.35L329.70-73.35L327-69.75L322.80-67.65Q315-63.75 314.40-64.20L314.40-64.20Q314.25-64.35 314.10-65.25L314.10-65.25Q313.95-65.85 314.32-66.22Q314.70-66.60 316.80-67.50L316.80-67.50Q319.65-68.70 322.65-70.20L322.65-70.20Q324.60-71.40 325.50-72.22Q326.40-73.05 328.20-75.60L328.20-75.60Q337.20-88.05 338.85-97.65ZM390.15-91.95L390.15-91.95Q391.65-92.40 394.27-92.25Q396.90-92.10 398.40-91.50L398.40-91.50Q402.30-90 403.20-85.95Q404.10-81.90 402.15-73.35L402.15-73.35Q400.80-67.20 400.50-66.75L400.50-66.75Q400.20-66.15 398.25-65.40L398.25-65.40Q396.90-64.80 396.60-64.80Q396.30-64.80 396-65.25L396-65.25Q395.55-66 395.70-66.38Q395.85-66.75 397.05-67.20L397.05-67.20L398.40-67.95L399.60-72.90Q402.30-85.35 399.45-87.90L399.45-87.90Q397.50-89.85 393.15-89.70L393.15-89.70Q392.25-89.70 390.75-89.40Q389.25-89.10 387.45-88.58Q385.65-88.05 383.77-87.45Q381.90-86.85 380.10-86.17Q378.30-85.50 376.80-84.90L376.80-84.90Q373.05-83.10 372-83.40L372-83.40Q371.25-83.40 371.18-83.33Q371.10-83.25 371.40-82.50L371.40-82.50Q372.15-81 373.35-68.70L373.35-68.70Q373.35-68.25 373.35-67.65L373.35-67.65Q373.95-62.55 374.18-61.65Q374.40-60.75 375.45-60.60L375.45-60.60Q375.60-60.60 375.60-60.60L375.60-60.60Q377.55-60.15 384.60-61.65Q391.65-63.15 394.05-64.50L394.05-64.50Q394.80-64.95 395.40-63.90L395.40-63.90Q395.85-63 395.70-62.77Q395.55-62.55 394.50-62.10L394.50-62.10Q392.70-61.20 389.32-60.30Q385.95-59.40 382.43-58.80Q378.90-58.20 376.80-58.20L376.80-58.20L374.25-58.20L374.25-57Q374.25-56.25 374.10-56.02Q373.95-55.80 373.20-55.95L373.20-55.95L372.15-56.10L371.40-63.75Q370.65-71.10 370.20-74.40Q369.75-77.70 369.30-80.02Q368.85-82.35 368.48-82.88Q368.10-83.40 367.35-83.70L367.35-83.70Q366.45-84 366.38-84.15Q366.30-84.30 366.90-85.35L366.90-85.35Q367.20-86.25 368.10-86.10L368.10-86.10Q369-85.80 369.45-85.80L369.45-85.80Q370.20-85.80 370.20-85.13Q370.20-84.45 370.50-84.30L370.50-84.30Q370.65-84.15 370.80-84.45L370.80-84.45Q370.95-84.60 370.95-84.90L370.95-84.90Q371.10-85.65 372.15-85.95L372.15-85.95Q373.35-86.25 376.65-87.60L376.65-87.60Q381.90-90 390.15-91.95ZM392.10-81.30L392.10-81.30Q393.30-81.75 393.45-81.75L393.45-81.75Q393.75-81.75 393.98-80.77Q394.20-79.80 394.05-79.65L394.05-79.65Q393.75-79.35 390.82-78.67Q387.90-78 385.80-77.70L385.80-77.70Q383.55-77.25 380.70-77.40Q377.85-77.55 376.80-78L376.80-78Q375.75-78.45 375.75-79.50L375.75-79.50Q375.75-80.25 375.98-80.47Q376.20-80.70 376.80-80.70L376.80-80.70Q377.85-80.70 378.30-80.25L378.30-80.25Q379.05-79.50 383.93-79.88Q388.80-80.25 392.10-81.30ZM349.65-64.80L349.65-64.80Q350.85-65.40 351.15-64.65L351.15-64.65Q351.75-63.15 350.10-62.70L350.10-62.70Q346.65-61.50 337.35-61.50L337.35-61.50Q334.50-61.50 332.10-60.90L332.10-60.90Q329.55-60.15 329.25-60.75L329.25-60.75Q328.95-61.35 328.95-62.10L328.95-62.10Q329.10-63.45 340.80-64.05L340.80-64.05Q348.75-64.50 349.65-64.80ZM341.40-55.95L341.40-55.95L341.70-58.80L343.05-58.80L344.40-58.80L344.10-56.55Q344.10-55.80 343.88-53.70Q343.65-51.60 343.65-51.30L343.65-51.30L343.35-48.45L346.20-49.20Q348.75-49.80 349.65-50.25L349.65-50.25Q349.95-50.55 350.32-50.48Q350.70-50.40 350.85-50.02Q351-49.65 351-49.05L351-49.05Q351-47.85 345.30-46.50L345.30-46.50L343.65-46.05L343.35-42.15Q343.05-37.95 343.20-33L343.20-33Q343.20-25.35 343.13-23.70Q343.05-22.05 342.45-21.30L342.45-21.30Q341.85-20.70 341.70-20.63Q341.55-20.55 340.95-21.15L340.95-21.15Q340.05-21.90 340.35-22.50L340.35-22.50Q340.65-23.10 340.65-34.20L340.65-34.20L340.80-45.30L338.10-44.55Q332.55-43.05 330.15-44.70L330.15-44.70Q329.10-45.30 328.95-45.67Q328.80-46.05 329.55-46.95L329.55-46.95L330.30-47.70L331.35-46.95Q332.25-46.20 333.23-46.20Q334.20-46.20 337.35-46.95L337.35-46.95L340.80-47.70L341.10-50.40Q341.10-50.85 341.25-52.95Q341.40-55.05 341.40-55.95ZM388.80-57.45L388.80-57.45L390.15-58.95L390.45-54.45Q390.60-51 390.82-49.88Q391.05-48.75 391.80-48.75L391.80-48.75Q391.95-48.75 399-49.80L399-49.80Q410.70-51.75 415.65-50.55L415.65-50.55Q417.30-50.10 417.60-49.20L417.60-49.20Q418.65-46.50 415.80-42L415.80-42Q414.75-40.50 413.10-37.20L413.10-37.20Q411.45-33.90 410.10-32.10Q408.75-30.30 407.40-29.40Q406.05-28.50 404.10-28.20L404.10-28.20Q402.60-28.05 401.10-28.80L401.10-28.80Q400.05-29.55 399.90-29.92Q399.75-30.30 400.20-31.20L400.20-31.20Q400.50-31.80 400.65-31.80Q400.80-31.80 401.70-31.20L401.70-31.20Q403.35-30.15 405.90-31.35L405.90-31.35Q407.85-32.40 411.15-39L411.15-39Q412.50-41.55 413.55-43.20L413.55-43.20Q414.45-44.70 414.90-46.20L414.90-46.20Q415.35-47.55 415.27-47.77Q415.20-48 414.60-48.30L414.60-48.30Q411.45-49.20 398.40-47.10L398.40-47.10L391.05-45.90L391.20-43.65Q391.35-43.20 391.57-41.25Q391.80-39.30 392.18-36.23Q392.55-33.15 392.85-30.60L392.85-30.60Q396.90 3.30 395.25 9L395.25 9Q394.95 10.20 394.65 10.50Q394.35 10.80 393.60 10.80L393.60 10.80Q391.65 10.80 392.85 7.65L392.85 7.65Q393.45 5.85 393.30 1.35L393.30 1.35Q392.55-11.25 390.15-31.50L390.15-31.50Q388.35-45.30 387.90-45.30L387.90-45.30Q387-45.30 380.70-44.40L380.70-44.40Q373.80-43.50 369.45-43.50L369.45-43.50Q365.10-43.50 365.10-43.20L365.10-43.20Q365.10-43.05 365.40-42.90L365.40-42.90Q366-42.15 366.30-40.35L366.30-40.35Q369.15-27 368.85-26.70L368.85-26.70Q368.85-26.70 367.80-26.40L367.80-26.40L366.90-26.25L365.70-31.50Q364.50-37.35 364.20-39.15L364.20-39.15Q363.75-41.25 363.38-41.25Q363-41.25 362.63-42Q362.25-42.75 362.85-43.35L362.85-43.35Q363.45-43.80 363.15-43.80L363.15-43.80Q362.70-43.80 362.70-44.70L362.70-44.70Q362.70-45.45 363.30-45.60Q363.90-45.75 367.95-45.90L367.95-45.90Q373.20-46.05 381-47.10L381-47.10L388.50-48.15L388.20-49.65Q388.05-51 387.75-53.70L387.75-53.70Q387.60-55.35 387.75-55.88Q387.90-56.40 388.80-57.45ZM351.75-34.20L351.75-34.20Q352.35-34.50 353.55-34.50L353.55-34.50Q354.45-34.50 354.60-34.27Q354.75-34.05 354.75-33L354.75-33Q354.75-31.65 349.95-25.05L349.95-25.05Q345.15-18.45 342.90-15.90L342.90-15.90L340.50-13.35L339.60-14.10L338.85-15L340.80-16.95Q342.60-18.90 346.35-24.15L346.35-24.15Q350.70-30.30 351.38-31.35Q352.05-32.40 351.60-33.15L351.60-33.15Q351.30-33.90 351.75-34.20ZM327.75-31.50L328.50-32.10Q329.40-32.70 329.85-32.55L329.85-32.55Q330-32.40 330.68-31.20Q331.35-30 332.02-28.50Q332.70-27 332.85-26.25L332.85-26.25Q333-25.20 333.68-23.47Q334.35-21.75 335.02-20.25Q335.70-18.75 336.15-18.30L336.15-18.30Q337.05-17.25 336.60-16.50L336.60-16.50Q336.30-15.75 336-15.75L336-15.75Q333.60-15.75 330.75-24.30L330.75-24.30Q329.25-28.95 328.50-30L328.50-30L327.75-31.50ZM361.80-16.05L361.80-16.05Q362.40-16.50 362.48-16.50Q362.55-16.50 363.15-15.45L363.15-15.45Q363.60-14.70 363.52-14.47Q363.45-14.25 362.70-13.80L362.70-13.80Q361.65-13.35 356.70-12.90L356.70-12.90Q351.90-12.45 348.30-11.85L348.30-11.85Q345-11.25 340.50-10.80L340.50-10.80Q328.80-9.45 324.30-8.55L324.30-8.55Q322.20-8.10 319.80-8.10L319.80-8.10L317.40-8.10L317.40-9.15Q317.40-10.05 317.70-10.20Q318-10.35 319.80-10.50L319.80-10.50Q323.10-10.95 324.75-11.10L324.75-11.10Q332.40-12.45 340.50-13.20L340.50-13.20Q345.15-13.80 348.60-14.40L348.60-14.40Q351.15-15 356.40-15.30L356.40-15.30Q361.20-15.75 361.80-16.05Z"/>
    </svg>
        