<svg width="240" height="240" version="1.1" xmlns="http://www.w3.org/2000/svg" xmlns:xlink="http://www.w3.org/1999/xlink"><path d="M104.30 28.89Q105.23 28.19 107.11 29.60L107.11 29.60Q112.03 32.64 120.23 34.28L120.23 34.28Q125.63 35.22 127.15 35.81Q128.67 36.39 129.61 37.80L129.61 37.80Q131.02 40.61 129.26 42.60Q127.50 44.60 124.22 44.48Q120.94 44.36 118.59 42.25L118.59 42.25Q115.08 40.14 112.73 39.44L112.73 39.44Q109.45 38.27 106.76 36.04Q104.06 33.81 103.48 31.94Q102.89 30.06 104.30 28.89L104.30 28.89ZM67.50 176.55Q67.50 178.42 64.80 187.92Q62.11 197.41 61.88 200.46L61.88 200.46Q61.64 205.85 58.83 218.38Q56.02 230.92 55.55 233.27L55.55 233.27Q54.38 239.60 53.67 241.35Q52.97 243.11 51.33 245.22L51.33 245.22Q47.81 249.21 43.59 246.16L43.59 246.16Q41.95 245.69 42.19 243.35Q42.42 241.00 43.24 238.89Q44.06 236.78 45 234.21Q45.94 231.63 45.94 230.46L45.94 230.46Q46.41 228.81 49.34 218.50Q52.27 208.19 52.50 203.50L52.50 203.50Q52.50 197.17 56.48 183.70Q60.47 170.22 60.47 166.24L60.47 166.24Q60.94 161.08 64.34 147.84Q67.73 134.60 68.20 130.61L68.20 130.61Q68.67 125.69 71.25 114.32Q73.83 102.96 74.53 96.63L74.53 96.63L74.77 92.88L71.95 92.64Q68.44 92.41 67.73 90.42Q67.03 88.42 68.32 86.20Q69.61 83.97 71.48 82.80L71.48 82.80Q74.30 80.46 76.17 79.28Q78.05 78.11 81.56 77.06Q85.08 76.00 89.30 76.00L89.30 76.00Q92.11 76.71 96.33 74.95Q100.55 73.19 105.94 69.91Q111.33 66.63 111.56 66.39L111.56 66.39Q124.92 58.89 134.30 52.10L134.30 52.10Q142.03 46.71 144.14 45.06Q146.25 43.42 146.25 42.02L146.25 42.02Q146.25 38.97 152.11 35.92L152.11 35.92Q154.92 34.52 155.86 34.52Q156.80 34.52 157.97 35.69L157.97 35.69Q159.38 37.56 159.61 38.38Q159.84 39.21 158.67 40.85L158.67 40.85Q156.80 43.89 150.12 49.99Q143.44 56.08 139.92 58.19L139.92 58.19Q136.88 59.83 132.66 63.11Q128.44 66.39 126.33 67.56L126.33 67.56Q125.39 67.56 116.13 74.24Q106.88 80.92 102.89 82.10L102.89 82.10Q101.72 83.03 95.51 85.14Q89.30 87.25 88.13 88.19L88.13 88.19Q86.25 89.36 85.20 93.23Q84.14 97.10 83.44 102.72Q82.73 108.35 82.27 110.22L82.27 110.22Q74.77 139.28 70.55 164.13L70.55 164.13Q70.08 168.11 68.91 171.63Q67.73 175.14 67.50 176.55L67.50 176.55ZM116.02 176.31Q114.84 176.78 110.04 183.23Q105.23 189.67 101.95 189.44L101.95 189.44Q98.91 188.97 98.09 187.21Q97.27 185.46 98.32 183.23Q99.38 181.00 100.78 179.01Q102.19 177.02 103.83 175.85L103.83 175.85Q105.47 174.44 106.64 172.33L106.64 172.33Q108.52 169.28 116.72 160.26Q124.92 151.24 127.97 145.14L127.97 145.14Q130.55 141.16 135.47 134.83Q140.39 128.50 143.20 125.92L143.20 125.92Q144.38 124.75 146.25 121.71Q148.13 118.66 148.83 117.72L148.83 117.72Q150 116.78 149.41 115.96Q148.83 115.14 147.77 113.97Q146.72 112.80 146.95 112.33L146.95 112.33Q146.25 111.39 153.05 106.00L153.05 106.00Q154.92 104.60 158.91 101.78L158.91 101.78Q166.64 95.69 166.64 95.22L166.64 95.22Q167.58 93.81 167.23 93.46Q166.88 93.11 165.23 94.05L165.23 94.05Q164.53 94.28 160.08 96.39Q155.63 98.50 154.45 99.44L154.45 99.44Q152.34 101.31 149.53 100.14Q146.72 98.97 146.25 96.63L146.25 96.63Q148.13 92.64 156.45 89.13Q164.77 85.61 166.64 84.21L166.64 84.21Q171.33 80.69 174.38 81.63L174.38 81.63Q178.36 83.03 172.50 88.66L172.50 88.66Q168.75 91.94 168.75 92.53Q168.75 93.11 171.09 93.11L171.09 93.11Q174.61 93.11 174.96 95.22Q175.31 97.33 172.27 99.44L172.27 99.44Q170.39 101.08 166.99 104.48Q163.59 107.88 160.78 110.34Q157.97 112.80 154.92 114.91L154.92 114.91Q153.05 115.38 153.16 117.37Q153.28 119.36 153.05 120.77L153.05 120.77Q152.58 121.71 151.76 125.69Q150.94 129.67 150 130.85L150 130.85Q147.89 133.42 149.77 133.66L149.77 133.66Q150.70 133.66 154.45 132.72L154.45 132.72Q159.61 131.55 161.25 132.02L161.25 132.02Q162.66 131.78 164.77 131.67Q166.88 131.55 168.05 131.43Q169.22 131.31 170.27 130.96Q171.33 130.61 171.21 129.67Q171.09 128.74 170.16 127.33L170.16 127.33Q168.28 123.58 168.87 122.41Q169.45 121.24 172.73 122.17L172.73 122.17Q174.38 122.64 174.96 122.41Q175.55 122.17 176.95 120.77L176.95 120.77Q178.59 118.89 179.06 114.21L179.06 114.21Q179.53 109.28 179.53 94.63Q179.53 79.99 179.06 78.11L179.06 78.11Q178.36 73.89 172.97 76.00L172.97 76.00Q168.05 77.88 165 75.30L165 75.30Q164.06 74.13 163.71 73.07Q163.36 72.02 163.36 71.43Q163.36 70.85 164.06 70.26Q164.77 69.67 165.35 69.44Q165.94 69.21 167.34 68.50Q168.75 67.80 169.45 67.56L169.45 67.56Q173.44 65.69 178.13 65.92L178.13 65.92Q182.81 66.16 184.57 67.10Q186.33 68.03 187.50 71.31L187.50 71.31Q188.67 73.89 188.91 76.94Q189.14 79.99 189.14 93.58L189.14 93.58Q189.14 120.53 186.33 125.22L186.33 125.22Q184.92 127.33 185.04 128.27Q185.16 129.21 186.80 130.61L186.80 130.61Q191.25 134.83 186.33 139.05L186.33 139.05Q181.88 143.27 179.77 139.75L179.77 139.75Q179.06 138.35 177.30 138.11Q175.55 137.88 173.55 138.58Q171.56 139.28 169.22 139.75Q166.88 140.22 165.70 139.99L165.70 139.99Q155.16 140.46 144.61 144.44L144.61 144.44Q139.92 145.85 137.81 147.49Q135.70 149.13 133.59 152.88L133.59 152.88Q132.19 156.16 126.45 163.31Q120.70 170.46 119.30 172.33L119.30 172.33Q116.72 176.31 116.02 176.31L116.02 176.31ZM89.30 153.11Q87.19 152.64 86.37 152.06Q85.55 151.47 85.78 150.42Q86.02 149.36 86.60 148.66Q87.19 147.96 88.71 146.08Q90.23 144.21 91.17 142.80L91.17 142.80Q92.58 141.39 95.39 137.53Q98.20 133.66 100.78 131.31L100.78 131.31Q104.06 128.74 103.59 127.80L103.59 127.80Q103.13 126.86 100.08 129.91L100.08 129.91Q96.56 133.42 92.23 134.01Q87.89 134.60 86.95 131.55L86.95 131.55Q86.25 129.91 87.07 128.62Q87.89 127.33 91.17 125.69L91.17 125.69Q100.31 120.53 101.48 118.66L101.48 118.66Q102.19 117.72 105 115.49Q107.81 113.27 108.05 111.63L108.05 111.63Q108.28 110.92 104.18 111.39Q100.08 111.86 96.45 112.33Q92.81 112.80 91.88 111.63L91.88 111.63Q87.89 109.28 89.53 106.71L89.53 106.71Q91.41 103.66 101.48 102.25L101.48 102.25Q103.83 102.25 106.76 101.78Q109.69 101.31 111.21 101.20Q112.73 101.08 114.61 101.78Q116.48 102.49 118.13 104.36L118.13 104.36Q120.70 106.94 121.41 109.28Q122.11 111.63 121.64 116.78L121.64 116.78Q121.17 119.83 120.47 123.11Q119.77 126.39 118.24 132.60Q116.72 138.81 115.66 143.15Q114.61 147.49 112.73 149.36Q110.86 151.24 108.75 150.53Q106.64 149.83 104.65 148.19Q102.66 146.55 101.02 144.21L101.02 144.21Q100.78 143.74 100.55 143.74Q100.31 143.74 99.84 144.09Q99.38 144.44 98.79 145.14Q98.20 145.85 97.03 147.49L97.03 147.49Q94.22 151.24 92.81 152.17Q91.41 153.11 89.30 153.11L89.30 153.11ZM108.05 131.78Q108.28 132.02 105.35 135.65Q102.42 139.28 102.42 139.75L102.42 139.75Q102.42 140.46 104.53 141.63Q106.64 142.80 107.34 142.33L107.34 142.33Q108.52 139.99 111.33 129.67L111.33 129.67Q110.86 127.33 108.75 130.38L108.75 130.38Q108.05 131.31 108.05 131.78L108.05 131.78ZM152.81 163.66Q152.34 166.00 149.18 172.68Q146.02 179.36 145.55 181.47L145.55 181.47Q145.55 181.71 149.30 181.47L149.30 181.47Q150.70 181.71 150.70 182.41L150.70 182.41Q150.70 183.11 145.90 188.03Q141.09 192.96 137.58 195.77L137.58 195.77Q135.94 197.17 133.48 197.53Q131.02 197.88 130.08 196.71L130.08 196.71Q129.14 196.00 129.38 194.24Q129.61 192.49 130.55 191.55L130.55 191.55Q132.89 188.74 136.17 180.06Q139.45 171.39 143.20 167.17L143.20 167.17Q144.84 165.06 145.66 163.42Q146.48 161.78 147.42 160.61L147.42 160.61Q150 158.27 152.58 159.91L152.58 159.91Q154.45 161.08 152.81 163.66L152.81 163.66ZM169.92 173.97Q169.22 176.31 164.65 186.28Q160.08 196.24 159.38 199.52L159.38 199.52Q159.38 200.46 155.63 203.97Q151.88 207.49 150.70 207.49L150.70 207.49Q147.19 206.31 147.07 204.09Q146.95 201.86 149.53 198.35L149.53 198.35Q151.17 196.00 154.34 188.85Q157.50 181.71 158.20 180.06L158.20 180.06Q159.14 178.66 159.14 178.19Q159.14 177.72 158.44 177.02L158.44 177.02Q157.50 175.85 157.97 174.79Q158.44 173.74 160.31 172.80Q162.19 171.86 165.23 171.16L165.23 171.16Q167.81 170.22 168.75 171.04Q169.69 171.86 169.92 173.97L169.92 173.97ZM176.95 183.58Q178.59 181.47 181.76 183.46Q184.92 185.46 186.33 187.33L186.33 187.33Q186.56 193.66 183.52 196.24L183.52 196.24Q182.58 197.17 182.58 198.35L182.58 198.35Q181.64 204.67 175.78 219.09Q169.92 233.50 167.58 237.25L167.58 237.25Q165.70 241.00 162.30 245.22Q158.91 249.44 156.33 249.91L156.33 249.91Q153.98 250.38 151.52 247.45Q149.06 244.52 149.06 241.24L149.06 241.24Q149.06 237.02 153.28 237.02L153.28 237.02Q155.39 237.02 156.21 236.08Q157.03 235.14 159.38 230.92L159.38 230.92Q164.30 221.55 168.40 211.82Q172.50 202.10 172.50 199.99L172.50 199.99Q172.27 199.52 173.91 196.12Q175.55 192.72 176.48 190.26Q177.42 187.80 176.25 187.33L176.25 187.33Q175.31 186.63 175.55 185.46Q175.78 184.28 176.95 183.58L176.95 183.58Z" stroke="#000" fill="black" /></svg>