<svg width="240" height="240" version="1.1" xmlns="http://www.w3.org/2000/svg" xmlns:xlink="http://www.w3.org/1999/xlink"><path d="M167.81 18.38Q169.22 18.38 170.63 20.02Q172.03 21.66 172.03 23.53L172.03 23.53Q172.03 25.41 170.98 26.58Q169.92 27.75 165.70 31.03L165.70 31.03Q162.42 33.61 161.48 36.30Q160.55 39 160.78 45.56L160.78 45.56Q161.02 47.20 161.25 50.02L161.25 50.02Q161.25 53.06 161.72 53.30Q162.19 53.53 165.23 50.95L165.23 50.95Q171.33 45.56 178.13 44.63L178.13 44.63Q181.41 44.39 182.58 44.98Q183.75 45.56 185.16 48.61L185.16 48.61Q186.80 52.13 186.21 59.74Q185.63 67.36 183.28 74.39L183.28 74.39Q181.64 77.91 181.76 81.42Q181.88 84.94 179.77 87.28L179.77 87.28Q177.66 90.33 173.79 93.26Q169.92 96.19 168.28 97.83L168.28 97.83Q156.56 108.84 154.22 103.45L154.22 103.45Q153.98 102.52 153.98 101.23Q153.98 99.94 151.76 95.84Q149.53 91.73 151.17 88.45L151.17 88.45Q154.92 80.72 153.05 50.72L153.05 50.72Q152.11 47.67 148.59 52.13L148.59 52.13Q144.14 57.28 141.09 55.88L141.09 55.88Q139.45 55.17 139.45 52.83L139.45 52.83Q139.69 50.48 143.20 46.50Q146.72 42.52 147.42 40.88L147.42 40.88Q147.89 38.77 155.51 30.09Q163.13 21.42 167.81 18.38L167.81 18.38ZM163.83 69.23Q164.30 71.58 169.92 67.13L169.92 67.13Q172.97 64.78 173.67 65.02L173.67 65.02Q176.25 65.02 177.07 63.84Q177.89 62.67 177.89 58.69L177.89 58.69Q177.89 54.47 177.07 54.12Q176.25 53.77 172.73 56.11L172.73 56.11Q169.69 58.22 166.76 62.44Q163.83 66.66 163.83 69.23L163.83 69.23ZM172.50 80.72Q174.38 76.03 173.20 76.03L173.20 76.03Q172.27 76.03 168.05 78.84L168.05 78.84Q165.47 80.25 163.83 81.89Q162.19 83.53 161.72 84.47Q161.25 85.41 160.43 88.45Q159.61 91.50 159.14 92.67L159.14 92.67Q158.67 94.08 159.84 93.38L159.84 93.38Q161.02 92.67 165.47 88.92L165.47 88.92Q171.09 84 172.50 80.72L172.50 80.72ZM77.34 34.55Q78.05 33.38 80.86 34.66Q83.67 35.95 86.72 37.48Q89.77 39 90.70 38.77L90.70 38.77Q91.41 38.77 98.09 40.99Q104.77 43.22 105.70 43.22L105.70 43.22Q109.22 42.75 110.63 46.27Q112.03 49.78 109.45 52.13L109.45 52.13Q107.11 53.53 103.36 51.66L103.36 51.66Q102.19 50.95 91.17 48.02Q80.16 45.09 79.69 45.09L79.69 45.09Q77.81 44.39 76.52 45.45Q75.23 46.50 74.30 50.02L74.30 50.02Q66.33 72.52 52.73 98.77L52.73 98.77Q48.75 106.73 48.05 108.61Q47.34 110.48 47.58 112.83L47.58 112.83Q47.81 115.17 47.46 116.46Q47.11 117.75 44.77 121.97L44.77 121.97Q41.25 128.30 39.96 129.70Q38.67 131.11 36.33 131.81L36.33 131.81Q33.52 132.52 32.34 131.58L32.34 131.58Q30.70 129.94 30.70 128.41Q30.70 126.89 32.58 122.67L32.58 122.67Q41.48 102.98 46.64 94.31L46.64 94.31Q49.45 89.39 52.97 80.48Q56.48 71.58 58.13 68.06L58.13 68.06Q62.58 59.39 63.98 55.52Q65.39 51.66 65.39 48.38L65.39 48.38Q65.39 44.16 66.68 42.40Q67.97 40.64 72.19 39.94L72.19 39.94Q73.36 39.70 74.88 37.24Q76.41 34.78 77.34 34.55L77.34 34.55ZM70.31 147.98Q70.78 147.52 69.26 144.70Q67.73 141.89 65.74 138.26Q63.75 134.63 63.52 133.22L63.52 133.22Q63.52 131.58 65.39 129.82Q67.27 128.06 68.91 128.06L68.91 128.06Q70.55 128.06 71.25 128.88Q71.95 129.70 73.13 132.98L73.13 132.98Q75.70 141.19 77.11 141.19L77.11 141.19Q77.81 140.25 77.81 128.65Q77.81 117.05 77.34 113.30L77.34 113.30Q75.70 112.36 72.89 112.83Q70.08 113.30 67.73 112.24Q65.39 111.19 66.09 108.38L66.09 108.38Q66.33 105.33 67.73 104.16Q69.14 102.98 72.42 103.22L72.42 103.22Q73.83 103.22 74.77 103.10Q75.70 102.98 76.52 102.98Q77.34 102.98 77.70 102.52Q78.05 102.05 78.40 101.93Q78.75 101.81 78.87 100.88Q78.98 99.94 79.10 99.59Q79.22 99.23 79.22 97.71Q79.22 96.19 79.22 95.48L79.22 95.48L79.69 90.56L74.53 91.03Q69.38 91.27 67.50 90.09L67.50 90.09Q65.86 88.69 65.86 86.70Q65.86 84.70 67.50 83.06L67.50 83.06Q69.14 81.66 74.53 81.19L74.53 81.19Q77.58 81.19 80.16 80.48Q82.73 79.78 84.26 78.96Q85.78 78.14 88.24 76.50Q90.70 74.86 91.88 74.16L91.88 74.16Q95.16 72.52 97.03 74.39L97.03 74.39Q100.55 77.91 93.05 82.59L93.05 82.59Q90 84.70 89.30 87.75L89.30 87.75Q87.66 93.84 88.83 94.08L88.83 94.08Q89.30 94.31 93.75 89.86L93.75 89.86Q95.86 87.52 96.80 87.52L96.80 87.52Q98.20 87.52 99.26 88.69Q100.31 89.86 100.31 91.50L100.31 91.50Q100.31 93.14 97.15 97.13Q93.98 101.11 91.17 102.98L91.17 102.98Q87.89 104.86 87.07 108.14Q86.25 111.42 86.02 121.97L86.02 121.97Q85.78 133.69 86.48 133.69L86.48 133.69Q86.95 133.69 88.59 130.41L88.59 130.41Q88.83 128.77 91.88 124.20Q94.92 119.63 95.16 118.92L95.16 118.92Q95.16 117.98 97.85 114.23Q100.55 110.48 101.95 109.31L101.95 109.31Q105.70 106.27 107.11 109.78L107.11 109.78Q108.28 112.83 104.06 118.69L104.06 118.69Q101.95 121.73 97.97 128.88Q93.98 136.03 93.98 136.73L93.98 136.73Q93.98 137.20 93.05 139.20Q92.11 141.19 92.34 141.42L92.34 141.42Q93.05 142.36 99.96 136.73Q106.88 131.11 111.33 125.95L111.33 125.95Q112.97 123.61 115.55 123.73Q118.13 123.84 118.71 125.72Q119.30 127.59 116.95 130.41L116.95 130.41Q115.08 133.92 104.06 144.23Q93.05 154.55 89.77 156.66L89.77 156.66Q88.83 156.89 84.26 160.41Q79.69 163.92 76.88 163.69L76.88 163.69Q70.31 163.92 68.91 162.52L68.91 162.52Q65.86 159.94 70.31 155.72L70.31 155.72Q72.42 154.08 72.66 152.91Q72.89 151.73 71.72 150.21Q70.55 148.69 70.31 147.98L70.31 147.98ZM191.95 105.56Q196.64 104.39 199.57 107.55Q202.50 110.72 202.73 117.05L202.73 117.05Q202.73 123.14 199.34 132.05Q195.94 140.95 191.72 145.41L191.72 145.41Q185.86 152.67 178.59 147.05L178.59 147.05Q175.55 144.70 175.31 145.17L175.31 145.17Q174.61 143.53 173.79 158.77Q172.97 174 172.38 192.87Q171.80 211.73 171.56 213.84L171.56 213.84Q171.33 215.95 169.45 217.59L169.45 217.59Q167.11 219.47 165 219Q162.89 218.53 161.95 215.48L161.95 215.48Q160.55 210.56 162.19 209.16L162.19 209.16Q163.83 207.98 164.06 184.08L164.06 184.08Q164.30 178.45 164.77 168.14Q165.23 157.83 165.35 152.67Q165.47 147.52 165 137.20L165 137.20Q163.36 136.03 153.28 146.34L153.28 146.34Q146.95 152.44 144.38 154.20Q141.80 155.95 139.69 155.02L139.69 155.02Q136.17 153.84 137.81 146.58L137.81 146.58Q139.92 136.73 140.16 130.64L140.16 130.64Q140.16 126.42 141.91 122.91Q143.67 119.39 145.90 118.57Q148.13 117.75 150.23 119.39L150.23 119.39Q151.41 121.73 151.17 123.14Q150.94 124.55 149.88 127.59Q148.83 130.64 148.83 132.28L148.83 132.28Q147.89 137.44 148.83 137.55Q149.77 137.67 154.22 133.69L154.22 133.69Q159.38 128.77 161.95 126.89L161.95 126.89Q164.30 125.02 164.65 123.73Q165 122.44 163.83 117.75L163.83 117.75Q161.95 111.42 166.64 108.38L166.64 108.38Q170.63 105.80 172.73 110.25L172.73 110.25Q173.44 111.42 173.67 112.83L173.67 112.83Q173.91 114.70 174.84 114.82Q175.78 114.94 177.66 113.53L177.66 113.53Q187.50 106.73 191.95 105.56L191.95 105.56ZM194.53 116.11Q193.13 113.30 186.56 117.98L186.56 117.98Q186.33 118.45 182.11 121.50L182.11 121.50Q178.59 123.38 176.95 125.48Q175.31 127.59 175.55 129.94Q175.78 132.28 176.72 134.27Q177.66 136.27 179.77 139.31L179.77 139.31Q181.41 140.95 183.40 141.19Q185.39 141.42 186.80 139.78L186.80 139.78Q188.67 137.91 192.19 128.77Q195.70 119.63 194.53 116.11L194.53 116.11Z" stroke="#000" fill="black" /></svg>