<svg width="240" height="240" version="1.1" xmlns="http://www.w3.org/2000/svg" xmlns:xlink="http://www.w3.org/1999/xlink"><path d="M114.14 34.57Q115.08 34.34 128.09 29.77Q141.09 25.20 147.19 24.02L147.19 24.02Q149.77 23.32 154.10 22.27Q158.44 21.21 160.08 20.98Q161.72 20.74 166.17 20.74Q170.63 20.74 177.66 21.45L177.66 21.45Q189.61 22.38 193.13 25.43L193.13 25.43Q194.06 26.37 194.30 27.19Q194.53 28.01 194.30 31.29L194.30 31.29Q193.83 36.21 192.66 39.02Q191.48 41.84 187.03 48.63L187.03 48.63Q180.47 58.24 173.67 65.16Q166.88 72.07 161.95 73.71L161.95 73.71Q157.50 75.12 156.56 72.77L156.56 72.77Q156.09 71.13 157.15 69.61Q158.20 68.09 161.48 65.51L161.48 65.51Q167.58 61.29 174.38 52.15L174.38 52.15Q184.45 39.26 184.92 34.34L184.92 34.34Q183.75 32.46 181.64 31.88Q179.53 31.29 175.90 31.05Q172.27 30.82 169.69 30.35L169.69 30.35Q163.59 29.18 160.78 29.65L160.78 29.65Q150 31.52 145.08 32.81Q140.16 34.10 129.84 37.62L129.84 37.62Q119.30 41.37 117.07 42.30Q114.84 43.24 113.44 44.65L113.44 44.65L111.56 46.52L111.80 60.35Q112.27 81.91 109.69 87.54L109.69 87.54Q109.22 89.18 106.88 90.59Q104.53 91.99 102.89 90.59L102.89 90.59Q101.72 89.88 100.55 87.89Q99.38 85.90 99.38 84.73L99.38 84.73Q104.77 76.99 102.66 75.59L102.66 75.59Q101.02 74.65 97.50 79.57L97.50 79.57Q94.22 83.79 86.84 88.71Q79.45 93.63 75 94.34L75 94.34Q72.66 94.80 71.72 93.16L71.72 93.16Q70.31 90.82 71.95 87.89Q73.59 84.96 76.64 84.26L76.64 84.26Q79.45 84.02 83.67 81.33Q87.89 78.63 92.93 74.65Q97.97 70.66 100.08 69.49L100.08 69.49L102.66 68.09L102.66 63.63Q102.66 60.35 102.89 55.66L102.89 55.66Q103.13 50.74 102.42 50.27Q101.72 49.80 97.27 51.45L97.27 51.45Q95.63 52.15 94.69 52.38L94.69 52.38Q70.08 62.70 61.64 66.68L61.64 66.68L57.89 68.09L58.13 71.13Q57.89 72.07 58.48 73.71Q59.06 75.35 59.53 76.99Q60 78.63 60.35 80.16Q60.70 81.68 60.12 82.73Q59.53 83.79 58.13 83.79L58.13 83.79Q55.31 84.26 53.55 82.03Q51.80 79.80 50.16 74.18L50.16 74.18Q46.88 63.16 42.89 57.54L42.89 57.54Q40.55 54.02 40.20 52.27Q39.84 50.51 41.25 48.16L41.25 48.16Q45.47 40.90 52.73 55.66L52.73 55.66Q53.20 56.60 53.79 57.89Q54.38 59.18 54.73 59.77Q55.08 60.35 55.43 60.70Q55.78 61.05 56.37 60.70Q56.95 60.35 57.89 59.65L57.89 59.65Q63.98 55.20 78.52 49.92Q93.05 44.65 99.14 41.37L99.14 41.37L103.59 39.26L103.59 29.18Q103.59 20.27 103.01 18.63Q102.42 16.99 99.14 17.70L99.14 17.70Q84.38 21.21 82.97 20.51L82.97 20.51Q81.80 20.27 82.27 16.05L82.27 16.05Q82.27 11.60 83.79 10.55Q85.31 9.49 87.77 10.31Q90.23 11.13 93.52 9.96L93.52 9.96Q105.23 7.15 121.64 1.05L121.64 1.05Q126.56-0.35 128.20-0.35Q129.84-0.35 130.78 1.52L130.78 1.52Q131.25 5.51 128.91 7.38Q126.56 9.26 121.17 10.66L121.17 10.66Q115.78 12.30 114.84 13.24L114.84 13.24Q113.91 14.41 113.20 19.69Q112.50 24.96 112.73 29.77Q112.97 34.57 114.14 34.57L114.14 34.57ZM137.11 40.20Q138.98 39.02 141.56 40.20Q144.14 41.37 143.67 43.01L143.67 43.01Q143.44 43.24 143.44 43.71L143.44 43.71Q141.80 49.57 138.52 52.85L138.52 52.85Q135.23 56.13 135.35 57.19Q135.47 58.24 139.22 58.71L139.22 58.71Q149.53 59.65 152.23 60.59Q154.92 61.52 155.39 64.10L155.39 64.10Q155.86 67.15 153.98 68.20Q152.11 69.26 147.19 68.55L147.19 68.55Q143.44 67.85 133.83 67.15L133.83 67.15Q126.56 66.45 123.98 65.63Q121.41 64.80 120.70 62.93L120.70 62.93Q120 61.29 121.17 59.53Q122.34 57.77 127.50 52.62L127.50 52.62Q129.84 50.74 131.37 48.87Q132.89 46.99 133.48 46.05Q134.06 45.12 135.35 43.13Q136.64 41.13 137.11 40.20L137.11 40.20ZM85.08 65.04Q98.20 59.88 98.20 64.10L98.20 64.10Q98.20 67.38 92.11 70.43L92.11 70.43Q91.17 70.90 90.47 71.13L90.47 71.13Q89.53 71.37 87.07 72.66Q84.61 73.95 82.73 74.88Q80.86 75.82 78.52 76.17Q76.17 76.52 75.23 74.88L75.23 74.88Q73.83 73.24 73.95 72.30Q74.06 71.37 75.70 69.49L75.70 69.49Q77.34 67.62 85.08 65.04L85.08 65.04ZM125.86 93.63Q127.27 91.76 130.08 91.52Q132.89 91.29 133.83 93.63L133.83 93.63Q134.30 95.74 132.54 97.73Q130.78 99.73 127.38 101.72Q123.98 103.71 123.28 104.41L123.28 104.41Q119.30 106.99 111.21 110.63Q103.13 114.26 98.67 115.20L98.67 115.20Q95.16 116.13 93.52 114.38Q91.88 112.62 93.52 109.80L93.52 109.80Q95.39 106.05 101.95 104.65L101.95 104.65Q108.05 103.48 115.20 100.08Q122.34 96.68 125.86 93.63L125.86 93.63ZM136.41 148.48Q126.33 156.21 110.63 161.84L110.63 161.84Q108.05 162.77 103.48 162.77Q98.91 162.77 97.50 161.60Q96.09 160.43 96.09 158.20Q96.09 155.98 97.50 154.57L97.50 154.57Q98.44 153.40 102.07 145.90Q105.70 138.40 105.70 137.70L105.70 137.70Q105.94 136.29 98.91 138.87L98.91 138.87Q95.39 140.27 95.16 140.27L95.16 140.27Q94.45 140.27 86.02 143.55L86.02 143.55Q69.84 149.88 67.97 149.18L67.97 149.18Q64.22 147.54 66.56 143.44Q68.91 139.34 71.72 139.10L71.72 139.10Q73.36 138.87 78.75 136.99Q84.14 135.12 90.70 132.54Q97.27 129.96 99.38 129.26L99.38 129.26Q105 127.38 116.84 121.41Q128.67 115.43 133.59 113.55L133.59 113.55Q134.06 113.32 136.64 111.91Q139.22 110.51 141.33 109.69Q143.44 108.87 145.08 109.10L145.08 109.10Q146.95 109.34 147.42 109.57Q147.89 109.80 148.13 111.21L148.13 111.21Q147.89 114.73 146.48 116.13Q145.08 117.54 141.45 118.83Q137.81 120.12 135.47 121.52L135.47 121.52Q132.89 123.16 130.66 123.98Q128.44 124.80 127.62 124.92Q126.80 125.04 125.86 126.21Q124.92 127.38 123.98 130.20L123.98 130.20Q123.28 132.54 120.12 134.88Q116.95 137.23 116.02 138.63L116.02 138.63Q113.91 140.98 111.33 145.90Q108.75 150.82 108.98 151.99L108.98 151.99Q109.45 154.34 116.02 151.29L116.02 151.29Q138.05 142.15 140.39 136.29L140.39 136.29Q144.84 127.85 151.41 134.65L151.41 134.65Q157.97 141.68 171.56 149.65L171.56 149.65Q179.77 153.87 180 156.45L180 156.45Q180.47 161.37 177.30 162.77Q174.14 164.18 170.16 159.96L170.16 159.96Q166.64 156.68 153.28 149.41L153.28 149.41Q147.42 144.02 144.14 144.02L144.14 144.02Q143.20 143.55 139.80 145.90Q136.41 148.24 136.41 148.48L136.41 148.48Z" stroke="#000" fill="black" /></svg>